<svg xmlns="http://www.w3.org/2000/svg" data-v-01ae1c36="" width="115" height="22" viewBox="0 0 115 22" fill="none" class="svg__logo-library svg logo-ucla"><path d="M64.223 6.914h2.43v9.954h5.63v2.028h-8.06V6.914zM73.14 6.914h2.281V8.96h-2.28V6.914zm0 3.387h2.281v8.595h-2.28V10.3zM79.076 17.824h-.033v1.072h-2.198V6.914h2.281v4.424h.051a2.685 2.685 0 012.396-1.273c2.162 0 3.704 1.859 3.704 4.54 0 2.782-1.475 4.542-3.636 4.542a2.86 2.86 0 01-2.565-1.324zm3.888-3.219c0-1.59-.637-2.695-1.91-2.695-1.442 0-1.978 1.156-1.978 2.747 0 1.576.788 2.582 2.061 2.582 1.175 0 1.827-.973 1.827-2.631M88.555 11.675h.05c.52-.972 1.106-1.476 2.112-1.476.181-.01.363.014.536.07v1.994h-.05c-1.492-.151-2.565.637-2.565 2.447v4.189h-2.28V10.3h2.195l.002 1.374zM97.145 17.944h-.033c-.436.653-1.056 1.156-2.53 1.156-1.76 0-3-.922-3-2.632 0-1.893 1.542-2.496 3.455-2.764 1.424-.201 2.079-.318 2.079-.972 0-.622-.484-1.022-1.441-1.022-1.073 0-1.59.385-1.66 1.206h-2.027c.07-1.508 1.19-2.834 3.703-2.834 2.582 0 3.62 1.157 3.62 3.168v4.373c0 .654.1 1.037.302 1.19v.084h-2.195a2.337 2.337 0 01-.268-.955l-.005.002zm.021-2.08v-1.29a6.317 6.317 0 01-1.59.503c-1.189.268-1.776.537-1.776 1.341 0 .804.536 1.09 1.34 1.09 1.308 0 2.028-.805 2.028-1.643M102.914 11.675h.051c.519-.972 1.106-1.476 2.111-1.476.182-.01.363.014.536.07v1.994h-.05c-1.491-.151-2.564.637-2.564 2.447v4.189h-2.281V10.3h2.195l.002 1.374zM106.914 19.92h.805c.905 0 1.273-.47 1.273-1.175a7.42 7.42 0 00-.653-2.33l-2.313-6.117h2.397l1.273 3.87c.268.788.553 1.877.553 1.877h.034s.234-1.09.503-1.877l1.206-3.87h2.296l-3 8.815c-.653 1.91-1.29 2.598-3.033 2.598h-1.341V19.92z" fill="#0F0F0F" class="svg__fill--black"/><path d="M.667 13.818a16.432 16.432 0 01-.041-1.944L1.55 1.362h3.442L4.05 11.966c-.202 2.295.698 3.931 2.989 3.931 2.34 0 3.579-1.664 3.783-3.7l.976-10.835h3.44l-.95 10.7c-.385 4.118-3.118 7.203-7.535 7.203-3.445 0-5.667-2.227-6.082-5.447M16.029 10.258c.449-5.046 3.853-9.229 9.733-9.229a8.063 8.063 0 014.518 1.308l-.394 4.168a5.084 5.084 0 00-4.454-2.074c-3.66 0-5.668 2.54-5.953 5.758-.277 3.133 1.34 5.68 4.884 5.68a6.577 6.577 0 004.907-2.164l-.385 4.28a9.884 9.884 0 01-4.795 1.32c-5.82 0-8.484-4.322-8.066-9.047M33.028 1.362h3.431l-1.253 14.273h4.918c.345 0 1.52-.018 1.836-.037-.018.173-.313 3.298-.313 3.298H31.471l1.557-17.534zM50.903 7.909c.108-.237.193-.483.254-.736a.378.378 0 01.055 0c.02.25.065.499.131.741.187.8 1.521 5.239 1.521 5.239h-4.329s2.322-5.128 2.368-5.241v-.003zm.88-7.348h-.237l-9.397 18.336h3.647l1.32-2.784h6.62l.83 2.78h3.638L51.784.562z" fill="#0B6AB7" class="svg__fill--primary-blue-03"/></svg>